# xmcd
#
# Track frame offsets:
#	150
#	27149
#	48017
#	73007
#	85653
#	96370
#	112401
#	129434
#	145132
#	166269
#	180127
#	204133
#	225333
#
# Disc length: 3300 seconds
#
# Revision: 0
# Processed by: cddbd v1.5.2PL0 Copyright (c) Steve Scherf et al.
# Submitted via: audiograbber 1.83.01
#
DISCID=9c0ce20d
DTITLE=Sawyer - Welcome To The Future
DYEAR=2012
DGENRE=Country
TTITLE0=Welcome To The Future
TTITLE1=I Run To You
TTITLE2=Drive Your Dream
TTITLE3=Mi Vida Loca (My Crazy Life)
TTITLE4=Two Feet Of Topsoil
TTITLE5=The Lowlands
TTITLE6=One Of Those Nights Tonight
TTITLE7=What About Now
TTITLE8=Strawberry Wine
TTITLE9=Baby's Got Her Bluejeans On
TTITLE10=Pocahontas Proud
TTITLE11=I Told You So
TTITLE12=I'll Fly Away
EXTD=
EXTT0=
EXTT1=
EXTT2=
EXTT3=
EXTT4=
EXTT5=
EXTT6=
EXTT7=
EXTT8=
EXTT9=
EXTT10=
EXTT11=
EXTT12=Bonus
PLAYORDER=
